{
  "accessors": [
    {
      "bufferView": 2,
      "componentType": 5126,
      "count": 18663,
      "max": [
        32.39164733886719,
        8.811737060546875,
        180.13754272460938
      ],
      "min": [
        -32.39164733886719,
        -21.4293212890625,
        -0.031183958053588867
      ],
      "type": "VEC3"
    },
    {
      "bufferView": 2,
      "byteOffset": 223956,
      "componentType": 5126,
      "count": 18663,
      "max": [
        0.9999787211418152,
        0.9999045729637146,
        0.9998608231544495
      ],
      "min": [
        -0.9999786615371704,
        -0.9999978542327881,
        -1.0
      ],
      "type": "VEC3"
    },
    {
      "bufferView": 1,
      "componentType": 5126,
      "count": 18663,
      "max": [
        0.9930729866027832,
        0.9846220016479492
      ],
      "min": [
        0.011030972003936768,
        0.010362029075622559
      ],
      "type": "VEC2"
    },
    {
      "bufferView": 0,
      "componentType": 5125,
      "count": 106836,
      "type": "SCALAR"
    },
    {
      "bufferView": 2,
      "byteOffset": 447912,
      "componentType": 5126,
      "count": 27376,
      "max": [
        51.937191009521484,
        11.182696342468262,
        163.52505493164063
      ],
      "min": [
        -51.937191009521484,
        -25.404075622558594,
        84.69180297851563
      ],
      "type": "VEC3"
    },
    {
      "bufferView": 2,
      "byteOffset": 776424,
      "componentType": 5126,
      "count": 27376,
      "max": [
        0.9999618530273438,
        0.9999896287918091,
        0.9957245588302612
      ],
      "min": [
        -0.9999619126319885,
        -0.9999998211860657,
        -0.999488890171051
      ],
      "type": "VEC3"
    },
    {
      "bufferView": 1,
      "byteOffset": 149304,
      "componentType": 5126,
      "count": 27376,
      "max": [
        0.9904112815856934,
        0.9974682927131653
      ],
      "min": [
        0.008589982986450195,
        0.006919980049133301
      ],
      "type": "VEC2"
    },
    {
      "bufferView": 0,
      "byteOffset": 427344,
      "componentType": 5125,
      "count": 155004,
      "type": "SCALAR"
    }
  ],
  "asset": {
    "extras": {
      "author": "Vanity (https://sketchfab.com/vanitydynamics)",
      "license": "CC-BY-4.0 (http://creativecommons.org/licenses/by/4.0/)",
      "source": "https://sketchfab.com/3d-models/unreal-mannequin-for-scale-reference-b21b6b854a2144d29b909f22e683ad61",
      "title": "Unreal Mannequin for Scale Reference"
    },
    "generator": "Sketchfab-13.96.0",
    "version": "2.0"
  },
  "bufferViews": [
    {
      "buffer": 0,
      "byteLength": 1047360,
      "name": "floatBufferViews",
      "target": 34963
    },
    {
      "buffer": 0,
      "byteLength": 368312,
      "byteOffset": 1047360,
      "byteStride": 8,
      "name": "floatBufferViews",
      "target": 34962
    },
    {
      "buffer": 0,
      "byteLength": 1104936,
      "byteOffset": 1415672,
      "byteStride": 12,
      "name": "floatBufferViews",
      "target": 34962
    }
  ],
  "buffers": [
    {
      "byteLength": 2520608,
      "uri": "scene.bin"
    }
  ],
  "materials": [
    {
      "doubleSided": true,
      "name": "MI_Quinn_01",
      "pbrMetallicRoughness": {
        "baseColorFactor": [
          0.215861,
          0.215861,
          0.215861,
          1.0
        ],
        "metallicFactor": 0.0,
        "roughnessFactor": 0.9543509563404913
      }
    },
    {
      "doubleSided": true,
      "name": "MI_Quinn_02",
      "pbrMetallicRoughness": {
        "baseColorFactor": [
          0.215861,
          0.215861,
          0.215861,
          1.0
        ],
        "metallicFactor": 0.0,
        "roughnessFactor": 0.9543509563404913
      }
    }
  ],
  "meshes": [
    {
      "name": "SKM_Quinn_LOD0_MI_Quinn_01_0",
      "primitives": [
        {
          "attributes": {
            "NORMAL": 1,
            "POSITION": 0,
            "TEXCOORD_0": 2
          },
          "indices": 3,
          "material": 0,
          "mode": 4
        }
      ]
    },
    {
      "name": "SKM_Quinn_LOD0_MI_Quinn_02_0",
      "primitives": [
        {
          "attributes": {
            "NORMAL": 5,
            "POSITION": 4,
            "TEXCOORD_0": 6
          },
          "indices": 7,
          "material": 1,
          "mode": 4
        }
      ]
    }
  ],
  "nodes": [
    {
      "children": [
        1
      ],
      "matrix": [
        1.0,
        0.0,
        0.0,
        0.0,
        0.0,
        2.220446049250313e-16,
        -1.0,
        0.0,
        0.0,
        1.0,
        2.220446049250313e-16,
        0.0,
        0.0,
        0.0,
        0.0,
        1.0
      ],
      "name": "Sketchfab_model"
    },
    {
      "children": [
        2
      ],
      "matrix": [
        0.009999999776482582,
        0.0,
        0.0,
        0.0,
        0.0,
        0.0,
        0.009999999776482582,
        0.0,
        0.0,
        -0.009999999776482582,
        0.0,
        0.0,
        0.0,
        0.0,
        0.0,
        1.0
      ],
      "name": "9d86c89656994ca5a4a0cede9ca888d9.fbx"
    },
    {
      "children": [
        3
      ],
      "name": "RootNode"
    },
    {
      "children": [
        4,
        5
      ],
      "matrix": [
        4.498603820800781,
        0.0,
        0.0,
        0.0,
        0.0,
        -7.329155907995519e-07,
        -4.498603820800722,
        0.0,
        0.0,
        4.498603820800722,
        -7.329155907995519e-07,
        0.0,
        0.0,
        0.0,
        0.0,
        1.0
      ],
      "name": "SKM_Quinn_LOD0"
    },
    {
      "mesh": 0,
      "name": "SKM_Quinn_LOD0_MI_Quinn_01_0"
    },
    {
      "mesh": 1,
      "name": "SKM_Quinn_LOD0_MI_Quinn_02_0"
    }
  ],
  "scene": 0,
  "scenes": [
    {
      "name": "Sketchfab_Scene",
      "nodes": [
        0
      ]
    }
  ]
}
